<svg id="SvgjsSvg1006" width="564.5" height="400" xmlns="http://www.w3.org/2000/svg" version="1.1" xmlns:xlink="http://www.w3.org/1999/xlink" xmlns:svgjs="http://svgjs.com/svgjs"><defs id="SvgjsDefs1007"><pattern patternUnits="userSpaceOnUse" id="pattern_mark_0" width="300" height="300"><text x="150" y="100" fill="rgba(229,229,229,0.8)" font-size="18" transform="rotate(-45, 150, 150)" style="dominant-baseline: middle; text-anchor: middle;"></text></pattern><pattern patternUnits="userSpaceOnUse" id="pattern_mark_1" width="300" height="300"><text x="150" y="200" fill="rgba(229,229,229,0.8)" font-size="18" transform="rotate(-45, 150, 150)" style="dominant-baseline: middle; text-anchor: middle;"></text></pattern></defs><rect id="svgbackgroundid" width="564.5" height="400" fill="transparent"></rect><rect id="SvgjsRect1009" width="564.5" height="400" fill="url(#pattern_mark_0)"></rect><rect id="SvgjsRect1010" width="564.5" height="400" fill="url(#pattern_mark_1)"></rect><g id="SvgjsG1011" transform="translate(25,24.999984741210938)"><path id="SvgjsPath1012" d="M 0 0L 200 0L 216 16L 216 350.0000057220459L 0 350.0000057220459L 0 0Z" stroke="none" fill-opacity="1" fill="#fff7bc"></path><path id="SvgjsPath1013" d="M 200 0L 200 16L 216 16Z" stroke="none" fill-opacity="1" fill="#e4d089"></path><path id="SvgjsPath1014" d="M 0 0L 200 0L 216 16L 216 350.0000057220459L 0 350.0000057220459L 0 0Z" stroke="none" fill="none"></path><g id="SvgjsG1015"><text id="SvgjsText1016" font-family="微软雅黑" text-anchor="middle" font-size="13px" width="196px" fill="#323232" font-weight="400" align="middle" lineHeight="125%" anchor="middle" family="微软雅黑" size="13px" weight="400" font-style="" opacity="1" y="164.37500286102295" transform="rotate(0)"></text></g></g><g id="SvgjsG1017" transform="translate(35,44.22220865885416)"><path id="SvgjsPath1018" d="M 0 4Q 0 0 4 0L 192 0Q 196 0 196 4L 196 51.11111577351889Q 196 55.11111577351889 192 55.11111577351889L 4 55.11111577351889Q 0 55.11111577351889 0 51.11111577351889Z" stroke="rgba(33,41,48,1)" stroke-width="1.5" fill-opacity="1" fill="#8c97f2"></path><g id="SvgjsG1019"><text id="SvgjsText1020" font-family="微软雅黑" text-anchor="middle" font-size="15px" width="176px" fill="#323232" font-weight="700" align="middle" lineHeight="125%" anchor="middle" family="微软雅黑" size="15px" weight="700" font-style="" opacity="1" y="15.180557886759445" transform="rotate(0)"><tspan id="SvgjsTspan1021" dy="18" x="98"><tspan id="SvgjsTspan1022" style="text-decoration:;">0 - 2^32</tspan></tspan></text></g></g><g id="SvgjsG1023" transform="translate(35,153.66665649414062)"><path id="SvgjsPath1024" d="M 0 4Q 0 0 4 0L 192 0Q 196 0 196 4L 196 131.66665649414062Q 196 135.66665649414062 192 135.66665649414062L 4 135.66665649414062Q 0 135.66665649414062 0 131.66665649414062Z" stroke="rgba(33,41,48,1)" stroke-width="1.5" fill-opacity="1" fill="#8c97f2"></path><g id="SvgjsG1025"><text id="SvgjsText1026" font-family="微软雅黑" text-anchor="middle" font-size="13px" width="176px" fill="#323232" font-weight="400" align="middle" lineHeight="125%" anchor="middle" family="微软雅黑" size="13px" weight="400" font-style="" opacity="1" y="57.20832824707031" transform="rotate(0)"><tspan id="SvgjsTspan1027" dy="16" x="98"><tspan id="SvgjsTspan1028" style="text-decoration:;"> </tspan></tspan></text></g></g><g id="SvgjsG1029" transform="translate(35.00000000000034,289.6666564941405)"><path id="SvgjsPath1030" d="M 0 4Q 0 0 4 0L 192 0Q 196 0 196 4L 196 73.33333587646484Q 196 77.33333587646484 192 77.33333587646484L 4 77.33333587646484Q 0 77.33333587646484 0 73.33333587646484Z" stroke="rgba(33,41,48,1)" stroke-width="1.5" fill-opacity="1" fill="#b0e38f"></path><g id="SvgjsG1031"><text id="SvgjsText1032" font-family="微软雅黑" text-anchor="middle" font-size="15px" width="176px" fill="#323232" font-weight="700" align="middle" lineHeight="125%" anchor="middle" family="微软雅黑" size="15px" weight="700" font-style="" opacity="1" y="7.791667938232422" transform="rotate(0)"><tspan id="SvgjsTspan1033" dy="18" x="98"><tspan id="SvgjsTspan1034" style="text-decoration:;">0100101001010101010</tspan></tspan><tspan id="SvgjsTspan1035" dy="18" x="98"><tspan id="SvgjsTspan1036" style="text-decoration:;">0101010010101010010</tspan></tspan><tspan id="SvgjsTspan1037" dy="18" x="98"><tspan id="SvgjsTspan1038" style="text-decoration:;">......</tspan></tspan></text></g></g><g id="SvgjsG1039" transform="translate(35,99.22220865885413)"><path id="SvgjsPath1040" d="M 0 4Q 0 0 4 0L 192 0Q 196 0 196 4L 196 51.11111577351889Q 196 55.11111577351889 192 55.11111577351889L 4 55.11111577351889Q 0 55.11111577351889 0 51.11111577351889Z" stroke="rgba(33,41,48,1)" stroke-width="1.5" fill-opacity="1" fill="#b0e38f"></path><g id="SvgjsG1041"><text id="SvgjsText1042" font-family="微软雅黑" text-anchor="middle" font-size="15px" width="176px" fill="#323232" font-weight="700" align="middle" lineHeight="125%" anchor="middle" family="微软雅黑" size="15px" weight="700" font-style="" opacity="1" y="15.180557886759445" transform="rotate(0)"><tspan id="SvgjsTspan1043" dy="18" x="98"><tspan id="SvgjsTspan1044" style="text-decoration:;">0 - 2^32</tspan></tspan></text></g></g><g id="SvgjsG1045" transform="translate(36.888888888888914,163.49999046325678)"><path id="SvgjsPath1046" d="M 0 0L 192.22222222222217 0L 192.22222222222217 117L 0 117Z" stroke="none" fill="none"></path><g id="SvgjsG1047"><text id="SvgjsText1048" font-family="微软雅黑" text-anchor="middle" font-size="15px" width="193px" fill="#323232" font-weight="700" align="middle" lineHeight="125%" anchor="middle" family="微软雅黑" size="15px" weight="700" font-style="" opacity="1" y="-0.875" transform="rotate(0)"><tspan id="SvgjsTspan1049" dy="18" x="96.5"><tspan id="SvgjsTspan1050" style="text-decoration:;">{</tspan></tspan><tspan id="SvgjsTspan1051" dy="18" x="96.5"><tspan id="SvgjsTspan1052" style="text-decoration:;">"type": "FILE",</tspan></tspan><tspan id="SvgjsTspan1053" dy="18" x="96.5"><tspan id="SvgjsTspan1054" style="text-decoration:;">"operation": " SAVE",</tspan></tspan><tspan id="SvgjsTspan1055" dy="18" x="96.5"><tspan id="SvgjsTspan1056" style="text-decoration:;">"direction": "REQUEST",</tspan></tspan><tspan id="SvgjsTspan1057" dy="18" x="96.5"><tspan id="SvgjsTspan1058" style="text-decoration:;">"size": 1024</tspan></tspan><tspan id="SvgjsTspan1059" dy="18" x="96.5"><tspan id="SvgjsTspan1060" style="text-decoration:;">}</tspan></tspan></text></g></g><g id="SvgjsG1061" transform="translate(246.5,52.77776654561359)"><path id="SvgjsPath1062" d="M 0 0L 216.5 0L 216.5 38L 0 38Z" stroke="none" fill="none"></path><g id="SvgjsG1063"><text id="SvgjsText1064" font-family="微软雅黑" text-anchor="middle" font-size="15px" width="217px" fill="#323232" font-weight="400" align="middle" lineHeight="125%" anchor="middle" family="微软雅黑" size="15px" weight="400" font-style="" opacity="1" y="-2.875" transform="rotate(0)"><tspan id="SvgjsTspan1065" dy="18" x="108.5"><tspan id="SvgjsTspan1066" style="text-decoration:;">Part1: Length of JSON Data</tspan></tspan><tspan id="SvgjsTspan1067" dy="18" x="108.5"><tspan id="SvgjsTspan1068" style="text-decoration:;">(Binary, 32 bits)</tspan></tspan></text></g></g><g id="SvgjsG1069" transform="translate(246.5,107.77776654561359)"><path id="SvgjsPath1070" d="M 0 0L 216.5 0L 216.5 38L 0 38Z" stroke="none" fill="none"></path><g id="SvgjsG1071"><text id="SvgjsText1072" font-family="微软雅黑" text-anchor="middle" font-size="15px" width="217px" fill="#323232" font-weight="400" align="middle" lineHeight="125%" anchor="middle" family="微软雅黑" size="15px" weight="400" font-style="" opacity="1" y="-2.875" transform="rotate(0)"><tspan id="SvgjsTspan1073" dy="18" x="108.5"><tspan id="SvgjsTspan1074" style="text-decoration:;">Part2: Length of Binary File</tspan></tspan><tspan id="SvgjsTspan1075" dy="18" x="108.5"><tspan id="SvgjsTspan1076" style="text-decoration:;fill: rgb(50, 50, 50);">(Binary, 32 bits)</tspan></tspan></text></g></g><g id="SvgjsG1077" transform="translate(250.5,202.49998474121094)"><path id="SvgjsPath1078" d="M 0 0L 288.5 0L 288.5 38L 0 38Z" stroke="none" fill="none"></path><g id="SvgjsG1079"><text id="SvgjsText1080" font-family="微软雅黑" text-anchor="middle" font-size="15px" width="289px" fill="#323232" font-weight="400" align="middle" lineHeight="125%" anchor="middle" family="微软雅黑" size="15px" weight="400" font-style="" opacity="1" y="-2.875" transform="rotate(0)"><tspan id="SvgjsTspan1081" dy="18" x="144.5"><tspan id="SvgjsTspan1082" style="text-decoration:;">Part3: JSON Data </tspan><tspan id="SvgjsTspan1083" style="text-decoration:;font-size: inherit;">(Text but encoded to </tspan></tspan><tspan id="SvgjsTspan1084" dy="18" x="144.5"><tspan id="SvgjsTspan1085" style="text-decoration:;font-size: inherit;">Binary, N bytes)</tspan></tspan></text></g></g><g id="SvgjsG1086" transform="translate(246.5,309.33332443237293)"><path id="SvgjsPath1087" d="M 0 0L 216.5 0L 216.5 38L 0 38Z" stroke="none" fill="none"></path><g id="SvgjsG1088"><text id="SvgjsText1089" font-family="微软雅黑" text-anchor="middle" font-size="15px" width="217px" fill="#323232" font-weight="400" align="middle" lineHeight="125%" anchor="middle" family="微软雅黑" size="15px" weight="400" font-style="" opacity="1" y="-2.875" transform="rotate(0)"><tspan id="SvgjsTspan1090" dy="18" x="108.5"><tspan id="SvgjsTspan1091" style="text-decoration:;">Part4: Binary File </tspan><tspan id="SvgjsTspan1092" style="text-decoration:;font-size: inherit;">(Binary, M </tspan></tspan><tspan id="SvgjsTspan1093" dy="18" x="108.5"><tspan id="SvgjsTspan1094" style="text-decoration:;font-size: inherit;">bytes, Optional)</tspan></tspan></text></g></g></svg>