<svg id="SvgjsSvg1101" width="564.5" height="457.3333435058594" xmlns="http://www.w3.org/2000/svg" version="1.1" xmlns:xlink="http://www.w3.org/1999/xlink" xmlns:svgjs="http://svgjs.com/svgjs"><defs id="SvgjsDefs1102"><pattern patternUnits="userSpaceOnUse" id="pattern_mark_0" width="300" height="300"><text x="150" y="100" fill="rgba(229,229,229,0.8)" font-size="18" transform="rotate(-45, 150, 150)" style="dominant-baseline: middle; text-anchor: middle;"></text></pattern><pattern patternUnits="userSpaceOnUse" id="pattern_mark_1" width="300" height="300"><text x="150" y="200" fill="rgba(229,229,229,0.8)" font-size="18" transform="rotate(-45, 150, 150)" style="dominant-baseline: middle; text-anchor: middle;"></text></pattern></defs><rect id="svgbackgroundid" width="564.5" height="457.3333435058594" fill="transparent"></rect><rect id="SvgjsRect1104" width="564.5" height="457.3333435058594" fill="url(#pattern_mark_0)"></rect><rect id="SvgjsRect1105" width="564.5" height="457.3333435058594" fill="url(#pattern_mark_1)"></rect><g id="SvgjsG1106" transform="translate(25,82.33332824707031)"><path id="SvgjsPath1107" d="M 0 0L 200 0L 216 16L 216 350.0000057220459L 0 350.0000057220459L 0 0Z" stroke="none" fill-opacity="1" fill="#fff7bc"></path><path id="SvgjsPath1108" d="M 200 0L 200 16L 216 16Z" stroke="none" fill-opacity="1" fill="#e4d089"></path><path id="SvgjsPath1109" d="M 0 0L 200 0L 216 16L 216 350.0000057220459L 0 350.0000057220459L 0 0Z" stroke="none" fill="none"></path><g id="SvgjsG1110"><text id="SvgjsText1111" font-family="微软雅黑" text-anchor="middle" font-size="13px" width="196px" fill="#323232" font-weight="400" align="middle" lineHeight="125%" anchor="middle" family="微软雅黑" size="13px" weight="400" font-style="" opacity="1" y="164.37500286102295" transform="rotate(0)"></text></g></g><g id="SvgjsG1112" transform="translate(35,101.55555216471353)"><path id="SvgjsPath1113" d="M 0 4Q 0 0 4 0L 192 0Q 196 0 196 4L 196 51.11111577351889Q 196 55.11111577351889 192 55.11111577351889L 4 55.11111577351889Q 0 55.11111577351889 0 51.11111577351889Z" stroke="rgba(33,41,48,1)" stroke-width="1.5" fill-opacity="1" fill="#8c97f2"></path><g id="SvgjsG1114"><text id="SvgjsText1115" font-family="微软雅黑" text-anchor="middle" font-size="15px" width="176px" fill="#323232" font-weight="700" align="middle" lineHeight="125%" anchor="middle" family="微软雅黑" size="15px" weight="700" font-style="" opacity="1" y="15.180557886759445" transform="rotate(0)"><tspan id="SvgjsTspan1116" dy="18" x="98"><tspan id="SvgjsTspan1117" style="text-decoration:;">0 - 2^32</tspan></tspan></text></g></g><g id="SvgjsG1118" transform="translate(35,211)"><path id="SvgjsPath1119" d="M 0 4Q 0 0 4 0L 192 0Q 196 0 196 4L 196 131.66665649414062Q 196 135.66665649414062 192 135.66665649414062L 4 135.66665649414062Q 0 135.66665649414062 0 131.66665649414062Z" stroke="rgba(33,41,48,1)" stroke-width="1.5" fill-opacity="1" fill="#8c97f2"></path><g id="SvgjsG1120"><text id="SvgjsText1121" font-family="微软雅黑" text-anchor="middle" font-size="13px" width="176px" fill="#323232" font-weight="400" align="middle" lineHeight="125%" anchor="middle" family="微软雅黑" size="13px" weight="400" font-style="" opacity="1" y="57.20832824707031" transform="rotate(0)"><tspan id="SvgjsTspan1122" dy="16" x="98"><tspan id="SvgjsTspan1123" style="text-decoration:;"> </tspan></tspan></text></g></g><g id="SvgjsG1124" transform="translate(35.00000000000034,346.9999999999999)"><path id="SvgjsPath1125" d="M 0 4Q 0 0 4 0L 192 0Q 196 0 196 4L 196 73.33333587646484Q 196 77.33333587646484 192 77.33333587646484L 4 77.33333587646484Q 0 77.33333587646484 0 73.33333587646484Z" stroke="rgba(33,41,48,1)" stroke-width="1.5" fill-opacity="1" fill="#b0e38f"></path><g id="SvgjsG1126"><text id="SvgjsText1127" font-family="微软雅黑" text-anchor="middle" font-size="15px" width="176px" fill="#323232" font-weight="700" align="middle" lineHeight="125%" anchor="middle" family="微软雅黑" size="15px" weight="700" font-style="" opacity="1" y="7.791667938232422" transform="rotate(0)"><tspan id="SvgjsTspan1128" dy="18" x="98"><tspan id="SvgjsTspan1129" style="text-decoration:;">0100101001010101010</tspan></tspan><tspan id="SvgjsTspan1130" dy="18" x="98"><tspan id="SvgjsTspan1131" style="text-decoration:;">0101010010101010010</tspan></tspan><tspan id="SvgjsTspan1132" dy="18" x="98"><tspan id="SvgjsTspan1133" style="text-decoration:;">......</tspan></tspan></text></g></g><g id="SvgjsG1134" transform="translate(35,156.5555521647135)"><path id="SvgjsPath1135" d="M 0 4Q 0 0 4 0L 192 0Q 196 0 196 4L 196 51.11111577351889Q 196 55.11111577351889 192 55.11111577351889L 4 55.11111577351889Q 0 55.11111577351889 0 51.11111577351889Z" stroke="rgba(33,41,48,1)" stroke-width="1.5" fill-opacity="1" fill="#b0e38f"></path><g id="SvgjsG1136"><text id="SvgjsText1137" font-family="微软雅黑" text-anchor="middle" font-size="15px" width="176px" fill="#323232" font-weight="700" align="middle" lineHeight="125%" anchor="middle" family="微软雅黑" size="15px" weight="700" font-style="" opacity="1" y="15.180557886759445" transform="rotate(0)"><tspan id="SvgjsTspan1138" dy="18" x="98"><tspan id="SvgjsTspan1139" style="text-decoration:;">0 - 2^32</tspan></tspan></text></g></g><g id="SvgjsG1140" transform="translate(36.888888888888914,220.83333396911615)"><path id="SvgjsPath1141" d="M 0 0L 192.22222222222217 0L 192.22222222222217 117L 0 117Z" stroke="none" fill="none"></path><g id="SvgjsG1142"><text id="SvgjsText1143" font-family="微软雅黑" text-anchor="middle" font-size="15px" width="193px" fill="#323232" font-weight="700" align="middle" lineHeight="125%" anchor="middle" family="微软雅黑" size="15px" weight="700" font-style="" opacity="1" y="-0.875" transform="rotate(0)"><tspan id="SvgjsTspan1144" dy="18" x="96.5"><tspan id="SvgjsTspan1145" style="text-decoration:;">{</tspan></tspan><tspan id="SvgjsTspan1146" dy="18" x="96.5"><tspan id="SvgjsTspan1147" style="text-decoration:;">"type": "FILE",</tspan></tspan><tspan id="SvgjsTspan1148" dy="18" x="96.5"><tspan id="SvgjsTspan1149" style="text-decoration:;">"operation": " SAVE",</tspan></tspan><tspan id="SvgjsTspan1150" dy="18" x="96.5"><tspan id="SvgjsTspan1151" style="text-decoration:;">"direction": "REQUEST",</tspan></tspan><tspan id="SvgjsTspan1152" dy="18" x="96.5"><tspan id="SvgjsTspan1153" style="text-decoration:;">"size": 1024</tspan></tspan><tspan id="SvgjsTspan1154" dy="18" x="96.5"><tspan id="SvgjsTspan1155" style="text-decoration:;">}</tspan></tspan></text></g></g><g id="SvgjsG1156" transform="translate(246.5,110.11111005147296)"><path id="SvgjsPath1157" d="M 0 0L 216.5 0L 216.5 38L 0 38Z" stroke="none" fill="none"></path><g id="SvgjsG1158"><text id="SvgjsText1159" font-family="微软雅黑" text-anchor="middle" font-size="15px" width="217px" fill="#323232" font-weight="400" align="middle" lineHeight="125%" anchor="middle" family="微软雅黑" size="15px" weight="400" font-style="" opacity="1" y="-2.875" transform="rotate(0)"><tspan id="SvgjsTspan1160" dy="18" x="108.5"><tspan id="SvgjsTspan1161" style="text-decoration:;">Part1: Length of JSON Data</tspan></tspan><tspan id="SvgjsTspan1162" dy="18" x="108.5"><tspan id="SvgjsTspan1163" style="text-decoration:;">(Binary, 32 bits)</tspan></tspan></text></g></g><g id="SvgjsG1164" transform="translate(246.5,165.11111005147296)"><path id="SvgjsPath1165" d="M 0 0L 216.5 0L 216.5 38L 0 38Z" stroke="none" fill="none"></path><g id="SvgjsG1166"><text id="SvgjsText1167" font-family="微软雅黑" text-anchor="middle" font-size="15px" width="217px" fill="#323232" font-weight="400" align="middle" lineHeight="125%" anchor="middle" family="微软雅黑" size="15px" weight="400" font-style="" opacity="1" y="-2.875" transform="rotate(0)"><tspan id="SvgjsTspan1168" dy="18" x="108.5"><tspan id="SvgjsTspan1169" style="text-decoration:;">Part2: Length of Binary File</tspan></tspan><tspan id="SvgjsTspan1170" dy="18" x="108.5"><tspan id="SvgjsTspan1171" style="text-decoration:;fill: rgb(50, 50, 50);">(Binary, 32 bits)</tspan></tspan></text></g></g><g id="SvgjsG1172" transform="translate(250.5,259.8333282470703)"><path id="SvgjsPath1173" d="M 0 0L 288.5 0L 288.5 38L 0 38Z" stroke="none" fill="none"></path><g id="SvgjsG1174"><text id="SvgjsText1175" font-family="微软雅黑" text-anchor="middle" font-size="15px" width="289px" fill="#323232" font-weight="400" align="middle" lineHeight="125%" anchor="middle" family="微软雅黑" size="15px" weight="400" font-style="" opacity="1" y="-2.875" transform="rotate(0)"><tspan id="SvgjsTspan1176" dy="18" x="144.5"><tspan id="SvgjsTspan1177" style="text-decoration:;">Part3: JSON Data </tspan><tspan id="SvgjsTspan1178" style="text-decoration:;font-size: inherit;">(Text but encoded to </tspan></tspan><tspan id="SvgjsTspan1179" dy="18" x="144.5"><tspan id="SvgjsTspan1180" style="text-decoration:;font-size: inherit;">Binary, N bytes)</tspan></tspan></text></g></g><g id="SvgjsG1181" transform="translate(246.5,366.6666679382323)"><path id="SvgjsPath1182" d="M 0 0L 216.5 0L 216.5 38L 0 38Z" stroke="none" fill="none"></path><g id="SvgjsG1183"><text id="SvgjsText1184" font-family="微软雅黑" text-anchor="middle" font-size="15px" width="217px" fill="#323232" font-weight="400" align="middle" lineHeight="125%" anchor="middle" family="微软雅黑" size="15px" weight="400" font-style="" opacity="1" y="-2.875" transform="rotate(0)"><tspan id="SvgjsTspan1185" dy="18" x="108.5"><tspan id="SvgjsTspan1186" style="text-decoration:;">Part4: Binary File </tspan><tspan id="SvgjsTspan1187" style="text-decoration:;font-size: inherit;">(Binary, M </tspan></tspan><tspan id="SvgjsTspan1188" dy="18" x="108.5"><tspan id="SvgjsTspan1189" style="text-decoration:;font-size: inherit;">bytes, Optional)</tspan></tspan></text></g></g><g id="SvgjsG1190" transform="translate(139.25,25)"><path id="SvgjsPath1191" d="M 0 0L 237.75 0L 237.75 40L 0 40Z" stroke="none" fill="none"></path><g id="SvgjsG1192"><text id="SvgjsText1193" font-family="微软雅黑" text-anchor="middle" font-size="20px" width="238px" fill="#323232" font-weight="700" align="middle" lineHeight="125%" anchor="middle" family="微软雅黑" size="20px" weight="700" font-style="" opacity="1" y="2" transform="rotate(0)"><tspan id="SvgjsTspan1194" dy="25" x="119"><tspan id="SvgjsTspan1195" style="text-decoration:;">STEP Message Format</tspan></tspan></text></g></g></svg>